<svg width="20" height="20" viewBox="0 0 20 20" fill="none" xmlns="http://www.w3.org/2000/svg">
<path d="M4.5 12C4.5 9.6875 7.6875 4.8125 9.1875 2.625C9.59375 2.0625 10.375 2.0625 10.7812 2.625C12.2812 4.8125 15.5 9.6875 15.5 12C15.5 15.0625 13.0312 17.5 10 17.5C6.9375 17.5 4.5 15.0625 4.5 12ZM7.5 12C7.5 11.75 7.25 11.5 7 11.5C6.71875 11.5 6.5 11.75 6.5 12C6.5 13.9375 8.0625 15.5 10 15.5C10.25 15.5 10.5 15.2812 10.5 15C10.5 14.75 10.25 14.5 10 14.5C8.59375 14.5 7.5 13.4062 7.5 12Z" fill="white"/>
</svg>
